<?xml version="1.0"?>
<svg xmlns="http://www.w3.org/2000/svg" xmlns:xlink="http://www.w3.org/1999/xlink" xmlns:svgjs="http://svgjs.com/svgjs" version="1.1" width="512" height="512" x="0" y="0" viewBox="0 0 512 512" style="enable-background:new 0 0 512 512" xml:space="preserve" class=""><g>
<g xmlns="http://www.w3.org/2000/svg">
	<g>
		<path d="M256,392c-8.276,0-15,6.724-15,15s6.724,15,15,15s15-6.724,15-15S264.276,392,256,392z" fill="#8048b7" data-original="#000000" style="" class=""/>
	</g>
</g>
<g xmlns="http://www.w3.org/2000/svg">
	<g>
		<path d="M136,392c-8.276,0-15,6.724-15,15s6.724,15,15,15s15-6.724,15-15S144.276,392,136,392z" fill="#8048b7" data-original="#000000" style="" class=""/>
	</g>
</g>
<g xmlns="http://www.w3.org/2000/svg">
	<g>
		<path d="M45,0C20.186,0,0,20.186,0,45v75h121V0H45z" fill="#8048b7" data-original="#000000" style="" class=""/>
	</g>
</g>
<g xmlns="http://www.w3.org/2000/svg">
	<g>
		<path d="M467,0H151v120h361V45C512,20.186,491.814,0,467,0z M256,90h-30c-8.291,0-15-6.709-15-15s6.709-15,15-15h30    c8.291,0,15,6.709,15,15S264.291,90,256,90z M346,90h-30c-8.291,0-15-6.709-15-15s6.709-15,15-15h30c8.291,0,15,6.709,15,15    S354.291,90,346,90z M437,90h-31c-8.291,0-15-6.709-15-15s6.709-15,15-15h31c8.291,0,15,6.709,15,15S445.291,90,437,90z" fill="#8048b7" data-original="#000000" style="" class=""/>
	</g>
</g>
<g xmlns="http://www.w3.org/2000/svg">
	<g>
		<path d="M256,211c-8.276,0-15,6.724-15,15s6.724,15,15,15s15-6.724,15-15S264.276,211,256,211z" fill="#8048b7" data-original="#000000" style="" class=""/>
	</g>
</g>
<g xmlns="http://www.w3.org/2000/svg">
	<g>
		<path d="M0,150v317c0,24.814,20.186,45,45,45h422c24.814,0,45-20.186,45-45V150H0z M376,452c-24.814,0-45-20.186-45-45    c0-19.53,12.578-36.024,30-42.237V347c0-8.276-6.724-15-15-15h-75v32.763c17.422,6.213,30,22.707,30,42.237    c0,24.814-20.186,45-45,45c-24.814,0-45-20.186-45-45c0-19.53,12.578-36.024,30-42.237V332h-75c-8.276,0-15,6.724-15,15v17.763    c17.422,6.213,30,22.707,30,42.237c0,24.814-20.186,45-45,45c-24.814,0-45-20.186-45-45c0-19.53,12.578-36.024,30-42.237V347    c0-24.814,20.186-45,45-45h75v-33.763c-17.422-6.213-30-22.707-30-42.237c0-24.814,20.186-45,45-45c24.814,0,45,20.186,45,45    c0,19.53-12.578,36.024-30,42.237V302h75c24.814,0,45,20.186,45,45v17.763c17.422,6.213,30,22.707,30,42.237    C421,431.814,400.814,452,376,452z" fill="#8048b7" data-original="#000000" style="" class=""/>
	</g>
</g>
<g xmlns="http://www.w3.org/2000/svg">
	<g>
		<path d="M376,392c-8.276,0-15,6.724-15,15s6.724,15,15,15s15-6.724,15-15S384.276,392,376,392z" fill="#8048b7" data-original="#000000" style="" class=""/>
	</g>
</g>
<g xmlns="http://www.w3.org/2000/svg">
</g>
<g xmlns="http://www.w3.org/2000/svg">
</g>
<g xmlns="http://www.w3.org/2000/svg">
</g>
<g xmlns="http://www.w3.org/2000/svg">
</g>
<g xmlns="http://www.w3.org/2000/svg">
</g>
<g xmlns="http://www.w3.org/2000/svg">
</g>
<g xmlns="http://www.w3.org/2000/svg">
</g>
<g xmlns="http://www.w3.org/2000/svg">
</g>
<g xmlns="http://www.w3.org/2000/svg">
</g>
<g xmlns="http://www.w3.org/2000/svg">
</g>
<g xmlns="http://www.w3.org/2000/svg">
</g>
<g xmlns="http://www.w3.org/2000/svg">
</g>
<g xmlns="http://www.w3.org/2000/svg">
</g>
<g xmlns="http://www.w3.org/2000/svg">
</g>
<g xmlns="http://www.w3.org/2000/svg">
</g>
</g></svg>
